<svg width="599" height="234" xmlns="http://www.w3.org/2000/svg" xmlns:xlink="http://www.w3.org/1999/xlink" overflow="hidden"><defs><clipPath id="clip0"><path d="M79 246 678 246 678 480 79 480Z" fill-rule="evenodd" clip-rule="evenodd"/></clipPath><radialGradient cx="2.84798e+06" cy="1.11443e+06" r="3.05825e+06" fx="5.69595e+06" fy="2.22885e+06" gradientUnits="userSpaceOnUse" spreadMethod="pad" id="fill1" gradientTransform="matrix(0.000104987 0 0 0.000104987 79 246)"><stop offset="0" stop-color="#FC466B"/><stop offset="0.00531915" stop-color="#FB466C"/><stop offset="0.0106383" stop-color="#FB466D"/><stop offset="0.0159574" stop-color="#FB466F"/><stop offset="0.0212766" stop-color="#FB4670"/><stop offset="0.0265957" stop-color="#FB4772"/><stop offset="0.0319149" stop-color="#FB4773"/><stop offset="0.037234" stop-color="#FB4774"/><stop offset="0.0425532" stop-color="#FB4776"/><stop offset="0.0478723" stop-color="#FB4877"/><stop offset="0.0531915" stop-color="#FB4879"/><stop offset="0.0585106" stop-color="#FB487A"/><stop offset="0.0638298" stop-color="#FA487B"/><stop offset="0.0691489" stop-color="#FA497D"/><stop offset="0.0744681" stop-color="#FA497E"/><stop offset="0.0797872" stop-color="#FA497F"/><stop offset="0.0851064" stop-color="#FA4981"/><stop offset="0.0904255" stop-color="#F94982"/><stop offset="0.0957447" stop-color="#F94A83"/><stop offset="0.101064" stop-color="#F94A85"/><stop offset="0.106383" stop-color="#F94A86"/><stop offset="0.111702" stop-color="#F84A87"/><stop offset="0.117021" stop-color="#F84A88"/><stop offset="0.12234" stop-color="#F84B8A"/><stop offset="0.12766" stop-color="#F84B8B"/><stop offset="0.132979" stop-color="#F74B8C"/><stop offset="0.138298" stop-color="#F74B8E"/><stop offset="0.143617" stop-color="#F74C8F"/><stop offset="0.148936" stop-color="#F64C90"/><stop offset="0.154255" stop-color="#F64C91"/><stop offset="0.159574" stop-color="#F54C93"/><stop offset="0.164894" stop-color="#F54C94"/><stop offset="0.170213" stop-color="#F54D95"/><stop offset="0.175532" stop-color="#F44D96"/><stop offset="0.180851" stop-color="#F44D97"/><stop offset="0.18617" stop-color="#F34D99"/><stop offset="0.191489" stop-color="#F34D9A"/><stop offset="0.196809" stop-color="#F34E9B"/><stop offset="0.202128" stop-color="#F24E9C"/><stop offset="0.207447" stop-color="#F24E9D"/><stop offset="0.212766" stop-color="#F14E9F"/><stop offset="0.218085" stop-color="#F14EA0"/><stop offset="0.223404" stop-color="#F04FA1"/><stop offset="0.228723" stop-color="#F04FA2"/><stop offset="0.234043" stop-color="#EF4FA3"/><stop offset="0.239362" stop-color="#EF4FA4"/><stop offset="0.244681" stop-color="#EE4FA5"/><stop offset="0.25" stop-color="#ED50A7"/><stop offset="0.255319" stop-color="#ED50A8"/><stop offset="0.260638" stop-color="#EC50A9"/><stop offset="0.265957" stop-color="#EC50AA"/><stop offset="0.271277" stop-color="#EB50AB"/><stop offset="0.276596" stop-color="#EB50AC"/><stop offset="0.281915" stop-color="#EA51AD"/><stop offset="0.287234" stop-color="#E951AE"/><stop offset="0.292553" stop-color="#E951AF"/><stop offset="0.297872" stop-color="#E851B0"/><stop offset="0.303191" stop-color="#E751B1"/><stop offset="0.308511" stop-color="#E751B2"/><stop offset="0.31383" stop-color="#E652B3"/><stop offset="0.319149" stop-color="#E552B4"/><stop offset="0.324468" stop-color="#E552B5"/><stop offset="0.329787" stop-color="#E452B6"/><stop offset="0.335106" stop-color="#E352B8"/><stop offset="0.340426" stop-color="#E253B9"/><stop offset="0.345745" stop-color="#E253BA"/><stop offset="0.351064" stop-color="#E153BA"/><stop offset="0.356383" stop-color="#E053BB"/><stop offset="0.361702" stop-color="#DF53BC"/><stop offset="0.367021" stop-color="#DF53BD"/><stop offset="0.37234" stop-color="#DE53BE"/><stop offset="0.37766" stop-color="#DD54BF"/><stop offset="0.382979" stop-color="#DC54C0"/><stop offset="0.388298" stop-color="#DB54C1"/><stop offset="0.393617" stop-color="#DB54C2"/><stop offset="0.398936" stop-color="#DA54C3"/><stop offset="0.404255" stop-color="#D954C4"/><stop offset="0.409574" stop-color="#D855C5"/><stop offset="0.414894" stop-color="#D755C6"/><stop offset="0.420213" stop-color="#D655C7"/><stop offset="0.425532" stop-color="#D555C8"/><stop offset="0.430851" stop-color="#D555C8"/><stop offset="0.43617" stop-color="#D455C9"/><stop offset="0.441489" stop-color="#D355CA"/><stop offset="0.446809" stop-color="#D256CB"/><stop offset="0.452128" stop-color="#D156CC"/><stop offset="0.457447" stop-color="#D056CD"/><stop offset="0.462766" stop-color="#CF56CE"/><stop offset="0.468085" stop-color="#CE56CE"/><stop offset="0.473404" stop-color="#CD56CF"/><stop offset="0.478723" stop-color="#CC56D0"/><stop offset="0.484043" stop-color="#CB57D1"/><stop offset="0.489362" stop-color="#CA57D2"/><stop offset="0.494681" stop-color="#C957D2"/><stop offset="0.5" stop-color="#C857D3"/><stop offset="0.505319" stop-color="#C757D4"/><stop offset="0.510638" stop-color="#C657D5"/><stop offset="0.515957" stop-color="#C557D6"/><stop offset="0.521277" stop-color="#C457D6"/><stop offset="0.526596" stop-color="#C358D7"/><stop offset="0.531915" stop-color="#C258D8"/><stop offset="0.537234" stop-color="#C158D9"/><stop offset="0.542553" stop-color="#BF58D9"/><stop offset="0.547872" stop-color="#BE58DA"/><stop offset="0.553191" stop-color="#BD58DB"/><stop offset="0.558511" stop-color="#BC58DB"/><stop offset="0.56383" stop-color="#BB58DC"/><stop offset="0.569149" stop-color="#BA59DD"/><stop offset="0.574468" stop-color="#B959DD"/><stop offset="0.579787" stop-color="#B759DE"/><stop offset="0.585106" stop-color="#B659DF"/><stop offset="0.590426" stop-color="#B559DF"/><stop offset="0.595745" stop-color="#B459E0"/><stop offset="0.601064" stop-color="#B359E1"/><stop offset="0.606383" stop-color="#B259E1"/><stop offset="0.611702" stop-color="#B059E2"/><stop offset="0.617021" stop-color="#AF5AE3"/><stop offset="0.62234" stop-color="#AE5AE3"/><stop offset="0.62766" stop-color="#AD5AE4"/><stop offset="0.632979" stop-color="#AB5AE5"/><stop offset="0.638298" stop-color="#AA5AE5"/><stop offset="0.643617" stop-color="#A95AE6"/><stop offset="0.648936" stop-color="#A75AE6"/><stop offset="0.654255" stop-color="#A65AE7"/><stop offset="0.659574" stop-color="#A55AE7"/><stop offset="0.664894" stop-color="#A45AE8"/><stop offset="0.670213" stop-color="#A25BE9"/><stop offset="0.675532" stop-color="#A15BE9"/><stop offset="0.680851" stop-color="#A05BEA"/><stop offset="0.68617" stop-color="#9E5BEA"/><stop offset="0.691489" stop-color="#9D5BEB"/><stop offset="0.696809" stop-color="#9B5BEB"/><stop offset="0.702128" stop-color="#9A5BEC"/><stop offset="0.707447" stop-color="#995BEC"/><stop offset="0.712766" stop-color="#975BED"/><stop offset="0.718085" stop-color="#965BED"/><stop offset="0.723404" stop-color="#955BEE"/><stop offset="0.728723" stop-color="#935BEE"/><stop offset="0.734043" stop-color="#925BEE"/><stop offset="0.739362" stop-color="#905CEF"/><stop offset="0.744681" stop-color="#8F5CEF"/><stop offset="0.75" stop-color="#8D5CF0"/><stop offset="0.755319" stop-color="#8C5CF0"/><stop offset="0.760638" stop-color="#8A5CF1"/><stop offset="0.765957" stop-color="#895CF1"/><stop offset="0.771277" stop-color="#875CF1"/><stop offset="0.776596" stop-color="#865CF2"/><stop offset="0.781915" stop-color="#845CF2"/><stop offset="0.787234" stop-color="#835CF3"/><stop offset="0.792553" stop-color="#815CF3"/><stop offset="0.797872" stop-color="#805CF3"/><stop offset="0.803191" stop-color="#7E5CF4"/><stop offset="0.808511" stop-color="#7D5CF4"/><stop offset="0.81383" stop-color="#7B5CF4"/><stop offset="0.819149" stop-color="#795DF5"/><stop offset="0.824468" stop-color="#785DF5"/><stop offset="0.829787" stop-color="#765DF5"/><stop offset="0.835106" stop-color="#755DF6"/><stop offset="0.840426" stop-color="#735DF6"/><stop offset="0.845745" stop-color="#715DF6"/><stop offset="0.851064" stop-color="#705DF6"/><stop offset="0.856383" stop-color="#6E5DF7"/><stop offset="0.861702" stop-color="#6D5DF7"/><stop offset="0.867021" stop-color="#6B5DF7"/><stop offset="0.87234" stop-color="#695DF7"/><stop offset="0.87766" stop-color="#685DF8"/><stop offset="0.882979" stop-color="#665DF8"/><stop offset="0.888298" stop-color="#645DF8"/><stop offset="0.893617" stop-color="#625DF8"/><stop offset="0.898936" stop-color="#615DF9"/><stop offset="0.904255" stop-color="#5F5DF9"/><stop offset="0.909574" stop-color="#5D5DF9"/><stop offset="0.914894" stop-color="#5C5DF9"/><stop offset="0.920213" stop-color="#5A5DF9"/><stop offset="0.925532" stop-color="#585DF9"/><stop offset="0.930851" stop-color="#565DFA"/><stop offset="0.93617" stop-color="#545DFA"/><stop offset="0.941489" stop-color="#535DFA"/><stop offset="0.946809" stop-color="#515DFA"/><stop offset="0.952128" stop-color="#4F5DFA"/><stop offset="0.957447" stop-color="#4D5DFA"/><stop offset="0.962766" stop-color="#4B5DFA"/><stop offset="0.968085" stop-color="#4A5DFA"/><stop offset="0.973404" stop-color="#485DFA"/><stop offset="0.978723" stop-color="#465DFA"/><stop offset="0.984043" stop-color="#445DFA"/><stop offset="0.989362" stop-color="#425DFA"/><stop offset="0.994681" stop-color="#405DFA"/><stop offset="1" stop-color="#3F5EFB"/></radialGradient></defs><g clip-path="url(#clip0)" transform="translate(-79 -246)"><path d="M309.051 392.049 309.051 435.757C309.051 439.446 310.125 442.304 312.273 444.333 314.421 446.362 317.398 447.376 321.203 447.376L436.648 447.376C440.453 447.376 443.461 446.362 445.67 444.333 447.879 442.304 448.984 439.446 448.984 435.757L448.984 418.79 346.612 418.79 346.612 392.049ZM481.318 364.385 481.318 379.323C481.318 382.889 482.146 385.409 483.804 386.885 485.461 388.36 488.069 389.098 491.629 389.098L577.614 389.098 577.614 393.893 481.686 393.893 481.686 437.048C481.686 440.614 482.607 443.226 484.448 444.886 486.289 446.546 488.99 447.376 492.549 447.376L605.785 447.376C609.345 447.376 612.045 446.546 613.887 444.886 615.728 443.226 616.648 440.614 616.648 437.048L616.648 422.479 519.063 422.479 519.063 417.499 604.865 417.499C608.424 417.499 611.033 416.761 612.69 415.286 614.347 413.811 615.175 411.29 615.175 407.725L615.175 364.385ZM350.478 306.475 408.293 306.475C410.993 306.475 413.019 306.967 414.369 307.951 415.719 308.934 416.394 310.655 416.394 313.114 416.394 315.451 415.842 317.141 414.737 318.186 413.633 319.231 411.73 319.754 409.03 319.754L350.478 319.754C347.778 319.754 345.753 319.231 344.402 318.186 343.052 317.141 342.377 315.451 342.377 313.114 342.377 310.655 343.052 308.934 344.402 307.951 345.753 306.967 347.778 306.475 350.478 306.475ZM136.231 278.442 136.231 295.594C136.231 299.16 137.366 301.957 139.637 303.985 141.908 306.014 144.517 307.028 147.463 307.028L187.417 307.028 187.417 353.135C187.417 374.774 182.753 390.88 173.424 401.454 164.095 412.028 152.066 417.315 137.336 417.315L137.336 446.27C165.2 446.27 187.018 437.94 202.792 421.28 218.565 404.62 226.451 381.106 226.451 350.737L226.451 278.442ZM473.953 278.258 473.953 295.41C473.953 298.975 475.119 301.772 477.451 303.801 479.784 305.83 482.423 306.844 485.369 306.844L528.453 306.844 528.453 308.319C528.453 316.557 523.666 322.551 514.092 326.301 504.517 330.051 491.138 331.926 473.953 331.926L473.953 360.512C506.604 360.512 530.356 355.071 545.209 344.19 560.061 333.309 567.488 317.233 567.488 295.963L567.488 278.258ZM577.798 277.889 577.798 360.143 600.998 360.143C605.294 360.143 608.731 359.006 611.309 356.731 613.887 354.457 615.175 351.413 615.175 347.602L615.175 277.889ZM235.473 277.889 235.473 447.376 248.914 447.376C255.666 447.376 261.343 445.071 265.946 440.46 270.549 435.849 272.851 430.163 272.851 423.401L272.851 367.335 283.898 367.335C288.317 367.335 291.846 366.413 294.485 364.569 297.124 362.725 298.444 359.713 298.444 355.532L298.444 335.245 272.851 335.245 272.851 277.889ZM338.879 277.336C329.795 277.336 322.093 279.826 315.771 284.805 309.45 289.785 306.289 295.901 306.289 303.156L306.289 323.258C306.289 330.512 309.45 336.598 315.771 341.516 322.093 346.434 329.795 348.893 338.879 348.893L361.342 348.893 361.342 357.377 300.029 357.377 300.029 374.528C300.029 378.463 301.011 381.321 302.975 383.104 304.939 384.887 307.885 385.778 311.813 385.778L446.222 385.778C450.15 385.778 453.096 384.887 455.06 383.104 457.024 381.321 458.006 378.463 458.006 374.528L458.006 357.377 398.719 357.377 398.719 348.893 419.525 348.893C428.608 348.893 436.31 346.434 442.632 341.516 448.954 336.598 452.114 330.512 452.114 323.258L452.114 303.156C452.114 295.901 448.954 289.785 442.632 284.805 436.31 279.826 428.608 277.336 419.525 277.336ZM117.937 246 638.063 246C659.567 246 677 263.461 677 285.001L677 440.999C677 462.539 659.567 480 638.063 480L117.937 480C96.4327 480 79 462.539 79 440.999L79 285.001C79 263.461 96.4327 246 117.937 246Z" fill="url(#fill1)" fill-rule="evenodd"/></g></svg>